<?xml version="1.0" encoding="UTF-8" standalone="no"?>
<!-- Created with Inkscape (http://www.inkscape.org/) -->
<svg
   xmlns:dc="http://purl.org/dc/elements/1.1/"
   xmlns:cc="http://web.resource.org/cc/"
   xmlns:rdf="http://www.w3.org/1999/02/22-rdf-syntax-ns#"
   xmlns:svg="http://www.w3.org/2000/svg"
   xmlns="http://www.w3.org/2000/svg"
   xmlns:sodipodi="http://inkscape.sourceforge.net/DTD/sodipodi-0.dtd"
   xmlns:inkscape="http://www.inkscape.org/namespaces/inkscape"
   width="229.95"
   height="296.04001"
   id="svg2"
   sodipodi:version="0.32"
   inkscape:version="0.43"
   sodipodi:docbase="/home/aoleg/diverse/wiki"
   sodipodi:docname="Mixed_boundary_conditions.svg"
   version="1.0">
  <defs
     id="defs4">
    <marker
       style="overflow:visible"
       id="Arrow1Lend"
       refX="0"
       refY="0"
       orient="auto"
       inkscape:stockid="Arrow1Lend">
      <path
         transform="scale(-0.8,-0.8)"
         style="fill-rule:evenodd;stroke:#000000;stroke-width:1pt;marker-start:none"
         d="M 0,0 L 5,-5 L -12.5,0 L 5,5 L 0,0 z "
         id="path4504" />
    </marker>
    <marker
       style="overflow:visible"
       id="Arrow2Lend"
       refX="0"
       refY="0"
       orient="auto"
       inkscape:stockid="Arrow2Lend">
      <path
         transform="matrix(-1.1,0,0,-1.1,5.5,0)"
         d="M 8.7185878,4.0337352 L -2.2072895,0.016013256 L 8.7185884,-4.0017078 C 6.97309,-1.6296469 6.9831476,1.6157441 8.7185878,4.0337352 z "
         style="font-size:12px;fill-rule:evenodd;stroke-width:0.625;stroke-linejoin:round"
         id="path4486" />
    </marker>
    <marker
       style="overflow:visible"
       id="Arrow1Lstart"
       refX="0"
       refY="0"
       orient="auto"
       inkscape:stockid="Arrow1Lstart">
      <path
         transform="scale(0.8,0.8)"
         style="fill-rule:evenodd;stroke:#000000;stroke-width:1pt;marker-start:none"
         d="M 0,0 L 5,-5 L -12.5,0 L 5,5 L 0,0 z "
         id="path4507" />
    </marker>
  </defs>
  <sodipodi:namedview
     id="base"
     pagecolor="#ffffff"
     bordercolor="#666666"
     borderopacity="1.0"
     gridtolerance="50"
     guidetolerance="10"
     objecttolerance="10"
     inkscape:pageopacity="1"
     inkscape:pageshadow="2"
     inkscape:zoom="1.1488932"
     inkscape:cx="168.21246"
     inkscape:cy="192.48653"
     inkscape:document-units="px"
     inkscape:current-layer="layer1"
     inkscape:window-width="960"
     inkscape:window-height="704"
     inkscape:window-x="60"
     inkscape:window-y="60"
     width="229.95px"
     height="296.04px"
     showgrid="false"
     inkscape:object-paths="false"
     inkscape:grid-bbox="false"
     inkscape:guide-bbox="false" />
  <metadata
     id="metadata7">
    <rdf:RDF>
      <cc:Work
         rdf:about="">
        <dc:format>image/svg+xml</dc:format>
        <dc:type
           rdf:resource="http://purl.org/dc/dcmitype/StillImage" />
      </cc:Work>
    </rdf:RDF>
  </metadata>
  <g
     inkscape:label="Layer 1"
     inkscape:groupmode="layer"
     id="layer1"
     transform="translate(-478.28736,-328.25464)">
    <path
       style="fill:#e9bebe;fill-opacity:0.16078431;fill-rule:evenodd;stroke:#009b00;stroke-width:3;stroke-linecap:butt;stroke-linejoin:miter;stroke-miterlimit:4;stroke-dasharray:none;stroke-opacity:1"
       d="M 659.78701,426.84643 C 642.86635,395.40787 607.32565,380.06948 572.41749,387.15866 C 548.84123,391.94655 527.58455,415.63343 525.28217,440.63904 C 522.30198,473.00637 532.09442,501.14778 533.75299,524.17643"
       id="path2166"
       sodipodi:nodetypes="csss" />
    <path
       style="fill:#eabebe;fill-opacity:0.15957444;fill-rule:evenodd;stroke:#4413c4;stroke-width:3;stroke-linecap:butt;stroke-linejoin:miter;stroke-miterlimit:4;stroke-dasharray:none;stroke-opacity:1"
       d="M 533.78496,524.13351 C 536.30132,559.07216 516.87669,586.11356 543.79546,601.80682 C 574.18931,619.52599 628.31478,581.10289 653.84913,544.8927 C 676.60354,512.62474 680.65737,465.40372 659.88911,426.81633"
       id="path2168"
       sodipodi:nodetypes="csss" />
    <path
       sodipodi:type="arc"
       style="opacity:1;fill:#b2151c;fill-opacity:1;fill-rule:evenodd;stroke:#d00000;stroke-width:0;stroke-linecap:butt;stroke-linejoin:round;stroke-miterlimit:4;stroke-dasharray:none;stroke-opacity:1"
       id="path3149"
       sodipodi:cx="464.41763"
       sodipodi:cy="496.27319"
       sodipodi:rx="8.8388348"
       sodipodi:ry="8.586297"
       d="M 473.25647 496.27319 A 8.8388348 8.586297 0 1 1  455.5788,496.27319 A 8.8388348 8.586297 0 1 1  473.25647 496.27319 z"
       transform="matrix(0.3397341,0,0,0.3497263,376.37589,351.74006)" />
    <path
       sodipodi:type="arc"
       style="opacity:1;fill:#b2151c;fill-opacity:1;fill-rule:evenodd;stroke:#d00000;stroke-width:0;stroke-linecap:butt;stroke-linejoin:round;stroke-miterlimit:4;stroke-dasharray:none;stroke-opacity:1"
       id="path3151"
       sodipodi:cx="464.41763"
       sodipodi:cy="496.27319"
       sodipodi:rx="8.8388348"
       sodipodi:ry="8.586297"
       d="M 473.25647 496.27319 A 8.8388348 8.586297 0 1 1  455.5788,496.27319 A 8.8388348 8.586297 0 1 1  473.25647 496.27319 z"
       transform="matrix(0.339734,0,0,0.349726,502.4542,253.6193)" />
    <path
       style="fill:#000000"
       d="M 534.38042,392.03435 C 534.38042,391.93035 534.98656,391.28328 535.72741,390.5964 C 537.86733,388.61238 538.45901,387.92993 538.68069,387.19004 C 539.09698,385.80058 538.31108,384.60591 536.98073,384.60591 C 536.21887,384.60591 535.12359,385.03361 535.12359,385.33111 C 535.12359,385.41816 535.249,385.59346 535.40228,385.72067 C 535.96686,386.18924 535.47661,386.97252 534.76092,386.74536 C 533.87145,386.46306 534.62485,384.74874 535.86393,384.2355 C 537.35045,383.61976 539.50409,384.44972 539.95353,385.81152 C 540.36932,387.07138 539.72256,388.012 537.00248,390.10337 L 535.81579,391.01577 L 537.35853,391.07023 C 538.20705,391.10019 539.00489,391.08493 539.13153,391.03634 C 539.25817,390.98774 539.41909,390.68708 539.48912,390.36821 C 539.55916,390.04933 539.71336,389.82073 539.83178,389.86021 C 539.95021,389.89968 540.03844,389.96682 540.02786,390.00939 C 540.01728,390.05197 539.94856,390.56755 539.87515,391.15512 L 539.74167,392.22342 L 537.06104,392.22342 C 535.36677,392.22342 534.38042,392.15385 534.38042,392.03435 z M 523.23284,389.71522 C 523.23284,389.53991 523.40967,389.43653 523.70954,389.43653 C 523.97172,389.43653 524.34795,389.34998 524.5456,389.2442 C 524.88615,389.06195 524.90498,388.80925 524.90498,384.42012 C 524.90498,380.031 524.88615,379.7783 524.5456,379.59604 C 524.34795,379.49026 523.97172,379.40371 523.70954,379.40371 C 523.40967,379.40371 523.23284,379.30033 523.23284,379.12502 C 523.23284,378.88492 523.85962,378.84633 527.75911,378.84633 L 532.28538,378.84633 L 532.4091,380.10044 C 532.47715,380.79019 532.58161,381.62626 532.64123,381.95837 C 532.72504,382.42519 532.6847,382.56219 532.46344,382.56219 C 532.26705,382.56219 532.11243,382.24998 531.97069,381.56722 C 531.60792,379.81978 530.72808,379.34714 528.01577,379.44267 L 526.48422,379.49661 L 526.43445,384.23433 C 526.3786,389.55067 526.35023,389.43653 527.72738,389.43653 C 528.23255,389.43653 528.43504,389.51627 528.43504,389.71522 C 528.43504,389.94967 528.02217,389.99391 525.83394,389.99391 C 523.64571,389.99391 523.23284,389.94967 523.23284,389.71522 z M 517.67121,389.55426 C 517.6964,389.27561 517.5993,375.42468 517.5993,359.15388 C 517.5993,337.27234 517.6981,339.72554 517.6949,335.90573 C 517.69486,335.85797 518.77856,335.88037 518.89248,335.90405 C 518.96055,335.9182 518.90929,335.95311 518.91372,359.40774 L 519.08992,389.56684 C 519.08992,389.56684 518.07477,389.59946 517.67121,389.55426 z M 486.72294,382.58728 C 484.37066,381.51866 483.54682,378.40673 484.8718,375.59496 C 485.5515,374.15256 487.26054,372.37059 488.62944,371.67697 C 489.52646,371.22245 489.92005,371.13593 491.09066,371.13593 C 492.7961,371.13593 493.47209,371.53336 494.10196,372.90634 L 494.52231,373.82262 L 494.746,372.85086 C 495.55724,369.32663 495.00249,366.63623 493.27452,365.71445 C 492.29904,365.19409 490.62494,365.26934 489.58423,365.88033 C 489.11334,366.15679 488.58887,366.59542 488.41874,366.85508 C 488.12487,367.30358 488.12705,367.32717 488.46253,367.32717 C 489.35109,367.32717 489.46181,368.44385 488.63427,369.05938 C 488.21017,369.37484 488.05301,369.40094 487.65886,369.22135 C 487.00375,368.92286 487.04655,368.19859 487.79284,366.95404 C 488.62223,365.57091 489.7884,364.86035 491.39709,364.75791 C 493.54806,364.62095 495.25858,365.70952 496.26474,367.85568 C 496.70945,368.80425 496.7569,369.11416 496.75277,371.04303 C 496.74725,373.62563 496.33172,375.29139 495.03796,377.91737 C 493.92319,380.18005 492.25474,381.93691 490.65078,382.53703 C 489.33332,383.02996 487.74218,383.05031 486.72294,382.58728 z M 490.85543,381.55667 C 492.51589,380.44586 493.92739,377.43486 493.955,374.94468 C 493.98065,372.63145 493.17038,371.5962 491.34069,371.60449 C 488.9086,371.61551 487.22699,373.51761 486.34564,377.25447 C 485.80529,379.54551 486.09115,381.20077 487.14361,381.87515 C 487.95322,382.39392 489.84675,382.23145 490.85543,381.55667 z M 499.32097,382.25282 C 499.25567,382.08267 499.68428,379.98526 500.27342,377.5919 C 501.47348,372.71674 501.51496,371.972 500.58648,371.972 C 499.86363,371.972 499.48278,372.47105 499.00062,374.05008 C 498.7394,374.90554 498.48784,375.40916 498.32176,375.40916 C 497.76395,375.40916 498.63569,372.75907 499.46693,371.92783 C 500.39789,370.99687 501.90265,371.3722 502.55916,372.69911 L 502.92591,373.44039 L 503.55749,372.7764 C 505.27527,370.97046 508.10813,370.95243 509.03332,372.74154 C 509.50263,373.64909 509.29187,375.19603 508.28606,378.22641 C 507.2764,381.26836 507.24791,381.88414 508.11291,381.96833 C 508.90523,382.04545 509.72171,381.20292 510.24472,379.76851 C 510.46916,379.15297 510.76151,378.66054 510.9025,378.66054 C 511.27541,378.66054 511.21717,378.99574 510.62783,380.24147 C 509.5432,382.53414 507.88312,383.22783 506.58579,381.9305 C 506.17157,381.51628 505.9541,381.12169 505.9541,380.78435 C 505.9541,380.5014 506.34038,379.09262 506.81251,377.65373 C 507.44908,375.71368 507.67716,374.72092 507.69503,373.81227 C 507.72542,372.26695 507.50861,371.97093 506.34938,371.97505 C 505.2182,371.97907 504.20038,372.5679 503.32688,373.72362 C 502.72152,374.52458 502.53405,375.05951 501.76511,378.17998 C 501.2845,380.13036 500.77438,381.91424 500.63151,382.14416 C 500.32252,382.64141 499.49637,382.70991 499.32097,382.25282 z M 577.16338,370.3381 C 575.93197,369.94795 575.62531,368.7318 576.57953,368.02266 C 577.53131,367.31533 578.44472,368.26374 577.78355,369.27281 C 577.619,369.52394 577.48437,369.77415 577.48437,369.82884 C 577.48437,370.05179 580.13158,369.91383 580.60563,369.66617 C 581.76925,369.05827 582.45554,367.96374 582.94594,365.93373 C 583.11874,365.21842 583.30822,364.46596 583.367,364.26159 C 583.46006,363.93805 583.40496,363.95333 582.94088,364.37972 C 581.35731,365.83472 579.59,365.82938 578.35854,364.36588 C 577.65913,363.53467 577.42715,362.62681 577.52491,361.10342 C 577.73638,357.80829 580.58454,354.50746 583.21631,354.50746 C 583.9347,354.50746 584.13439,354.60179 584.72064,355.21806 L 585.39662,355.92866 L 585.72241,355.49675 C 585.90159,355.2592 586.20127,355.06484 586.38836,355.06484 C 587.24679,355.06484 587.21411,355.35239 585.64041,361.64529 C 583.93071,368.482 583.77838,368.81727 581.92097,369.83135 C 581.0547,370.30431 580.69876,370.38316 579.24941,370.42312 C 578.32973,370.44848 577.39102,370.41022 577.16338,370.3381 z M 582.03735,364.45659 C 583.35834,363.68244 583.67927,363.07057 584.43489,359.88553 C 585.17554,356.76363 585.16532,356.39172 584.31395,355.48287 C 583.79288,354.92663 582.75922,354.92771 581.93171,355.48537 C 580.42411,356.50134 579.25304,359.53487 579.25075,362.43011 C 579.24964,363.84078 579.3094,364.19508 579.60334,364.52028 C 580.08446,365.05258 581.06412,365.02694 582.03735,364.45659 z M 551.33968,362.71693 C 551.34587,362.56854 551.27722,361.45042 551.29605,361.28021 C 551.48423,361.30719 567.05713,361.29668 567.32719,361.31776 C 567.34367,361.58603 567.38752,362.53759 567.35328,362.77069 C 566.73897,362.76581 551.8541,362.71018 551.33968,362.71693 z M 483.28736,358.7807 L 511.71368,358.7807 L 511.71368,359.89546 L 483.28736,359.89546 L 483.28736,358.7807 z M 551.3266,357.80425 C 551.31701,357.48224 551.32458,356.66943 551.32763,356.32559 C 551.56316,356.33678 566.79534,356.30125 567.33373,356.29076 C 567.31408,356.56241 567.35287,357.615 567.33585,357.78916 C 566.86946,357.79962 551.5727,357.82906 551.3266,357.80425 z M 487.04889,348.93833 C 484.78632,347.91132 483.87838,345.12507 484.92836,342.43092 C 486.01457,339.64382 488.94168,337.41337 491.51069,337.41521 C 492.95252,337.41623 493.93217,338.07128 494.56611,339.45823 L 494.86334,340.10851 L 495.12519,339.17954 C 495.26922,338.66861 495.40274,337.41231 495.42192,336.38776 C 495.45324,334.71522 495.40823,334.43055 494.9813,333.60087 C 494.71978,333.09263 494.23709,332.4957 493.90866,332.27436 C 492.52741,331.34348 490.46854,331.57277 489.17708,332.8013 L 488.40944,333.53154 L 488.86753,333.75993 C 489.94098,334.2951 488.93861,336.09127 487.84465,335.59283 C 487.26356,335.32807 487.22905,334.71272 487.73921,333.71272 C 488.53006,332.16254 489.79128,331.29854 491.4879,331.1447 C 493.1747,330.99175 494.15682,331.35496 495.39618,332.59007 C 496.2942,333.485 496.51128,333.84127 496.86187,334.99549 C 497.20836,336.13624 497.25617,336.61802 497.16436,338.04366 C 496.84277,343.03746 493.99996,347.869 490.69776,349.03409 C 489.62055,349.41415 488.00368,349.37172 487.04889,348.93833 z M 490.4928,348.27354 C 492.45066,347.4557 494.24914,344.08382 494.24914,341.23099 C 494.24914,338.85849 493.37892,337.90139 491.32673,338.01681 C 488.74623,338.16195 487.18097,340.31788 486.41861,344.77705 C 486.21775,345.9519 486.22989,346.2 486.52619,346.97585 C 486.94412,348.07017 487.6823,348.56043 488.91356,348.56139 C 489.40223,348.56177 490.11289,348.43224 490.4928,348.27354 z M 501.53982,348.56309 C 499.88536,347.55435 499.79418,346.12001 501.13494,342.19378 C 502.20829,339.05062 502.24753,338.46452 501.39025,338.38073 C 500.46625,338.29041 499.45725,339.55585 499.01262,341.36261 C 498.87486,341.92243 498.3365,342.07042 498.33673,341.5484 C 498.33702,340.91512 499.40284,338.98194 500.07903,338.38823 C 500.9656,337.60982 501.9456,337.56385 502.77504,338.26178 C 503.64117,338.99058 503.69367,339.73587 503.00707,341.55546 C 502.06286,344.05774 501.80936,345.05922 501.7911,346.35939 C 501.77748,347.32915 501.84965,347.67776 502.12769,347.98508 C 502.88514,348.82231 504.77686,348.29 505.55764,347.01993 C 505.75864,346.69298 506.35643,344.71153 506.88606,342.61671 C 507.41568,340.5219 507.97906,338.66165 508.13801,338.48282 C 508.50366,338.07143 509.27292,338.06098 509.42807,338.46528 C 509.49299,338.63446 509.14376,340.3275 508.65199,342.22759 C 507.50106,346.67463 507.37012,347.32764 507.51423,347.90183 C 507.60678,348.27056 507.75031,348.37629 508.15836,348.37629 C 508.8676,348.37629 509.28657,347.86065 509.78621,346.37285 C 510.05418,345.5749 510.31869,345.10154 510.51976,345.06008 C 510.77473,345.00751 510.81094,345.08804 510.71114,345.48568 C 510.16386,347.66621 509.22612,348.93367 508.16013,348.93367 C 507.41321,348.93367 506.64606,348.51044 506.33314,347.92574 C 506.07799,347.449 506.07063,347.44753 505.68943,347.79748 C 504.40772,348.97414 502.72361,349.28486 501.53982,348.56309 z "
       id="path3222"
       sodipodi:nodetypes="csssssssscccsssscccccsssssscccssscccsssccsssccccssscccssssssssssssccssssccssssscccssssssssssssssccsssssssssscccssssccssssscccccccccccccccccsscccssscccsssssssccsssssccssssssssssssssssssssssc" />
    <path
       style="fill:#000000"
       d="M 207.15625,266.15625 C 206.29535,266.23842 205.42068,266.95778 204.8125,268.21875 C 204.15935,269.57294 204.04336,270.12501 204.40625,270.125 C 204.55964,270.125 204.82276,269.68796 205.03125,269.0625 C 205.48383,267.70473 206.36999,266.71875 207.15625,266.71875 C 208.05406,266.71875 208.02941,267.37012 206.96875,270.46875 C 205.70929,274.1482 205.8167,275.84332 207.40625,276.8125 C 208.51352,277.48761 210.25836,277.19504 211.1875,276.1875 C 211.72363,275.60613 211.87355,275.59687 212.03125,276.09375 C 212.19606,276.61301 213.19808,277.18664 213.9375,277.1875 C 214.75203,277.18841 215.42964,276.45113 215.9375,275.09375 C 216.38662,273.89337 216.46295,273.31251 216.125,273.3125 C 215.99719,273.3125 215.72074,273.86962 215.53125,274.53125 C 215.10317,276.026 214.65792,276.62499 213.96875,276.625 C 212.96197,276.625 212.99197,276.19721 214.25,271.125 C 215.29582,266.90836 215.32205,266.53126 214.53125,266.53125 C 213.90226,266.53125 213.58459,267.28769 212.6875,270.875 C 212.18541,272.8827 211.61162,274.78596 211.4375,275.125 C 210.74564,276.47229 208.79023,277.12396 208,276.25 C 207.3867,275.57171 207.53717,273.65397 208.4375,270.96875 C 209.37204,268.18155 209.39533,267.52034 208.625,266.75 C 208.18443,266.30944 207.67279,266.10695 207.15625,266.15625 z M 133.4375,266.59375 C 132.98398,266.61502 132.50001,266.80336 132.0625,267.1875 C 131.39511,267.77347 130.34402,269.68746 130.34375,270.3125 C 130.34352,270.82772 130.89527,270.67755 131.03125,270.125 C 131.47008,268.34177 132.46303,267.09835 133.375,267.1875 C 134.22111,267.2702 134.18437,267.83529 133.125,270.9375 C 131.8017,274.81261 131.89834,276.25442 133.53125,277.25 C 134.69964,277.96237 136.35998,277.63008 137.625,276.46875 C 138.00124,276.12335 137.99818,276.12321 138.25,276.59375 C 138.55885,277.17083 139.3253,277.59374 140.0625,277.59375 C 141.11461,277.59375 142.02235,276.33964 142.5625,274.1875 C 142.661,273.79503 142.62665,273.72938 142.375,273.78125 C 142.17655,273.82218 141.92072,274.27496 141.65625,275.0625 C 141.16312,276.53092 140.76251,277.06251 140.0625,277.0625 C 139.65977,277.0625 139.49759,276.95769 139.40625,276.59375 C 139.26402,276.02704 139.39529,275.35789 140.53125,270.96875 C 141.01661,269.0934 141.37657,267.44823 141.3125,267.28125 C 141.15937,266.88221 140.39214,266.87523 140.03125,267.28125 C 139.87438,267.45775 139.30398,269.30746 138.78125,271.375 C 138.25851,273.44254 137.66713,275.39603 137.46875,275.71875 C 136.69814,276.97227 134.84134,277.48257 134.09375,276.65625 C 133.81934,276.35294 133.7678,276.01962 133.78125,275.0625 C 133.79928,273.77925 134.03683,272.78219 134.96875,270.3125 C 135.64641,268.51662 135.60484,267.78179 134.75,267.0625 C 134.34068,266.71808 133.89102,266.57248 133.4375,266.59375 z M 179.59152,268.10109 C 179.60744,268.37992 179.58097,269.00194 179.61193,269.64541 C 180.22587,269.64836 194.2498,269.72778 195.26952,269.65374 C 195.33846,269.01859 195.34923,268.08149 195.2498,268.06352 C 194.97749,268.01429 179.97876,268.07373 179.59152,268.10109 z M 147.5625,268.59375 C 147.31952,268.59879 147.06771,268.62045 146.78125,268.625 C 146.76682,268.62524 146.68004,292.29272 146.6875,292.46875 C 147.30032,292.48203 147.45205,292.47563 147.625,292.46875 L 147.5625,268.59375 z M 221.3125,269.84375 C 220.38645,269.84375 219.69324,270.17485 218.96875,271 C 218.09032,272.00047 217.90625,272.77077 217.90625,275.53125 C 217.90625,277.87444 217.94896,278.06763 218.4375,279.0625 C 218.81591,279.83309 219.15609,280.22523 219.71875,280.5625 C 220.60718,281.09499 221.93451,281.17171 222.75,280.75 C 223.58657,280.31739 224.39653,279.26468 224.71875,278.15625 C 225.11492,276.79349 225.00068,273.21822 224.53125,272.125 C 223.90394,270.6641 222.74555,269.84376 221.3125,269.84375 z M 221.28125,270.375 C 221.7602,270.33333 222.26467,270.48342 222.65625,270.875 C 223.29993,271.51868 223.40626,272.21448 223.40625,275.34375 C 223.40625,278.44042 223.29347,279.14895 222.65625,279.90625 C 221.76317,280.96762 220.13722,280.52643 219.625,279.0625 C 219.35748,278.29794 219.29153,273.12636 219.53125,272 C 219.73707,271.03296 220.48299,270.44444 221.28125,270.375 z M 179.71369,272.5964 C 179.67301,272.83216 179.71505,273.26539 179.66964,274.00478 C 183.36393,274.09702 194.92906,274.03941 195.22632,274.03561 C 195.32586,273.4762 195.24293,273.24249 195.21889,272.56462 C 194.86714,272.52249 180.02084,272.57682 179.71369,272.5964 z M 151.78125,278.1875 C 152.1417,278.27204 153.09772,278.91021 153.21875,279.03125 C 153.37798,279.19047 153.4375,280.51721 153.4375,283.78125 C 153.4375,287.0453 153.37797,288.34077 153.21875,288.5 C 153.09773,288.62102 152.73907,288.71876 152.40625,288.71875 C 151.99061,288.71875 151.8125,288.81109 151.8125,289 C 151.8125,289.23186 152.22752,289.28125 154.46875,289.28125 C 156.70998,289.28125 157.125,289.23187 157.125,289 C 157.125,288.79807 156.92384,288.71876 156.34375,288.71875 C 154.88021,288.71875 154.91323,288.87925 154.96875,283.59375 L 155,278.90625 L 157.0625,278.9375 C 159.65725,278.94557 159.99737,279.1282 160.40625,280.8125 C 160.5791,281.52454 160.77699,281.93751 160.9375,281.9375 C 161.14212,281.9375 161.19173,281.71199 161.09375,280.71875 C 161.02658,280.03797 160.90259,279.20278 160.84375,278.875 L 160.75,278.28125 L 156.28125,278.28125 C 152.42817,278.28125 151.90256,278.19741 151.78125,278.1875 z M 166.125,283.40625 C 166.03776,283.40625 165.7237,283.53901 165.4375,283.6875 C 165.15129,283.836 164.55632,283.99782 164.125,284.0625 C 163.3436,284.17968 163.13399,284.43657 163.625,284.625 C 163.76711,284.67953 164.16908,284.63125 164.53125,284.53125 L 165.1875,284.34375 L 165.1875,287.65625 L 165.1875,290.9375 L 164.375,290.9375 C 163.76376,290.9375 163.53126,291.015 163.53125,291.21875 C 163.53125,291.44857 163.92852,291.46876 165.84375,291.46875 C 167.72036,291.46875 168.12499,291.43572 168.125,291.21875 C 168.125,291.03268 167.86152,290.94549 167.25,290.90625 L 166.375,290.84375 L 166.34375,287.125 C 166.31645,285.08267 166.21222,283.40624 166.125,283.40625 z "
       id="path2170"
       sodipodi:nodetypes="cssssssssssssssssssssccsssssssssssssssssssssssccccsccsccccsssssssccssssscccccccsssssssscccscscccccssscccccssscccc"
       transform="translate(478.28736,328.25464)" />
    <path
       style="fill:#000000"
       d="M 565.24524,511.18053 C 565.03502,510.26013 564.60613,508.05227 564.60613,507.89054 C 564.60613,507.79563 564.72295,507.71795 564.86575,507.71795 C 565.03267,507.71795 565.20662,508.08676 565.35289,508.75086 C 565.62409,509.98204 565.85938,510.11866 567.70811,510.11866 C 568.59545,510.11866 568.96867,510.05031 568.96853,509.88784 C 568.96833,509.52873 567.97819,507.48955 567.22638,506.29975 C 564.8348,502.51494 564.35088,500.77653 565.082,498.59661 C 565.47707,497.41868 567.0251,495.74263 568.30689,495.10498 C 569.2603,494.63072 569.82068,493.97142 571.92037,493.97155 C 573.90522,493.97167 574.81062,494.66791 575.50207,494.98658 C 578.13138,496.19836 579.67867,498.93455 579.16266,501.45974 C 578.93042,502.59621 578.14819,504.22938 576.89603,506.19196 C 575.93518,507.69794 575.15344,509.3121 575.15076,509.79549 C 575.14924,510.07181 575.32697,510.11831 576.37595,510.11614 C 577.87401,510.11306 578.3825,509.98703 578.49498,509.59088 C 578.54232,509.42413 578.67088,508.93446 578.78066,508.50282 C 578.90091,508.02998 579.08586,507.71795 579.2459,507.71795 C 579.57105,507.71795 579.58111,507.51861 579.14801,509.657 C 578.94809,510.64428 578.78447,511.48443 578.78447,511.52405 C 578.78447,511.56365 577.791,511.59606 576.57682,511.59606 L 574.36916,511.59606 L 574.4754,510.30878 C 574.54494,509.46588 574.92669,507.9837 575.58128,506.01516 C 577.17284,501.22859 577.29526,499.58093 576.22151,497.3979 C 575.36754,495.66166 573.91528,494.78703 571.89966,494.79502 C 570.08116,494.80224 568.67836,495.75186 567.72476,497.46871 C 567.25922,498.30686 567.21463,498.82429 567.24183,500.42344 C 567.27548,502.43564 567.25248,502.48624 568.38506,505.82849 C 569.09751,507.93094 569.56976,509.65315 569.63836,510.39909 L 569.74833,511.59606 L 567.54425,511.59606 C 565.40778,511.59606 565.33722,511.58329 565.24524,511.18053 z "
       id="path1349"
       sodipodi:nodetypes="cssssssssssssssssssscccsssssscccc" />
  </g>
</svg>
